<svg width="460" height="319" viewBox="0 0 460 319" fill="none" xmlns="http://www.w3.org/2000/svg">
<path d="M215.28 304.869C155.707 332.445 119.479 311.83 97.8084 304.869C85.9631 298.406 30.4384 277.142 14.3862 247.154C-7.73777 205.823 -0.725762 188.4 11.3458 179.913C26.2844 169.924 64.4909 148.145 97.8084 140.937C131.126 133.73 106.132 82.3141 101.862 49.3808L101.84 49.2076C98.7564 25.4228 95.3362 -0.957611 144.288 0.91806C205.627 3.26831 221.936 52.0583 259.025 65.7136C287.2 76.0871 348.595 81.7885 400.427 97.457C452.259 113.126 461.42 160.913 459.836 186.374C458.251 211.836 448.486 233.974 424.521 250.367C397.806 268.642 353.351 278.709 323.927 277.142C294.502 275.575 289.746 270.398 215.28 304.869Z" fill="#FFE8D4"/>
</svg>
